HIERARCHY
ROOT hip
{
	OFFSET 0.000000 0.000000 0.000000
	CHANNELS 6 Xposition Yposition Zposition Zrotation Yrotation Xrotation 
	JOINT lhipjoint
	{
		OFFSET 0.000000 0.000000 0.000000
		CHANNELS 3 Zrotation Yrotation Xrotation
		JOINT lfemur
		{
			OFFSET 1.363060 -1.794630 0.839290
			CHANNELS 3 Zrotation Yrotation Xrotation
			JOINT ltibia
			{
				OFFSET 2.448110 -6.726130 0.000000
				CHANNELS 3 Zrotation Yrotation Xrotation
				JOINT lfoot
				{
					OFFSET 2.562200 -7.039590 0.000000
					CHANNELS 3 Zrotation Yrotation Xrotation
					JOINT ltoes
					{
						OFFSET 0.157640 -0.433110 2.322550
						CHANNELS 3 Zrotation Yrotation Xrotation
						End Site
						{
							OFFSET 0.000000 0.000000 0.000000
						}
					}
				}
			}
		}
	}
	JOINT rhipjoint
	{
		OFFSET 0.000000 0.000000 0.000000
		CHANNELS 3 Zrotation Yrotation Xrotation
		JOINT rfemur
		{
			OFFSET -1.305520 -1.794630 0.839290
			CHANNELS 3 Zrotation Yrotation Xrotation
			JOINT rtibia
			{
				OFFSET -2.542530 -6.985550 0.000000
				CHANNELS 3 Zrotation Yrotation Xrotation
				JOINT rfoot
				{
					OFFSET -2.568260 -7.056230 0.000000
					CHANNELS 3 Zrotation Yrotation Xrotation
					JOINT rtoes
					{
						OFFSET -0.164730 -0.452590 2.363150
						CHANNELS 3 Zrotation Yrotation Xrotation
						End Site
						{
							OFFSET 0.000000 0.000000 0.000000
						}
					}
				}
			}
		}
	}
	JOINT lowerback
	{
		OFFSET 0.000000 0.000000 0.000000
		CHANNELS 3 Zrotation Yrotation Xrotation
		JOINT upperback
		{
			OFFSET 0.028270 2.035590 -0.193380
			CHANNELS 3 Zrotation Yrotation Xrotation
			JOINT thorax
			{
				OFFSET 0.056720 2.048850 -0.042750
				CHANNELS 3 Zrotation Yrotation Xrotation
				JOINT lowerneck
				{
					OFFSET 0.000000 0.000000 0.000000
					CHANNELS 3 Zrotation Yrotation Xrotation
					JOINT upperneck
					{
						OFFSET -0.054170 1.746240 0.172020
						CHANNELS 3 Zrotation Yrotation Xrotation
						JOINT head
						{
							OFFSET 0.104070 1.761360 -0.123970
							CHANNELS 3 Zrotation Yrotation Xrotation
							End Site
							{
								OFFSET 0.000000 0.000000 0.000000
							}
						}
					}
				}
				JOINT lclavicle
				{
					OFFSET 0.000000 0.000000 0.000000
					CHANNELS 3 Zrotation Yrotation Xrotation
					JOINT lhumerus
					{
						OFFSET 3.362410 1.200890 -0.311210
						CHANNELS 3 Zrotation Yrotation Xrotation
						JOINT lradius
						{
							OFFSET 4.983000 -0.000000 -0.000000
							CHANNELS 3 Zrotation Yrotation Xrotation
							JOINT lwrist
							{
								OFFSET 3.483560 -0.000000 -0.000000
								CHANNELS 3 Zrotation Yrotation Xrotation
								JOINT lhand
								{
									OFFSET 0.000000 0.000000 0.000000
									CHANNELS 3 Zrotation Yrotation Xrotation
									JOINT lfingers
									{
										OFFSET 0.715260 -0.000000 -0.000000
										CHANNELS 3 Zrotation Yrotation Xrotation
										End Site
										{
											OFFSET 0.000000 0.000000 0.000000
										}
									}
								}
								JOINT lthumb
								{
									OFFSET 0.000000 0.000000 0.000000
									CHANNELS 3 Zrotation Yrotation Xrotation
									End Site
									{
										OFFSET 0.000000 0.000000 0.000000
									}
								}
							}
						}
					}
				}
				JOINT rclavicle
				{
					OFFSET 0.000000 0.000000 0.000000
					CHANNELS 3 Zrotation Yrotation Xrotation
					JOINT rhumerus
					{
						OFFSET -3.136600 1.374050 -0.404650
						CHANNELS 3 Zrotation Yrotation Xrotation
						JOINT rradius
						{
							OFFSET -5.241900 -0.000000 -0.000000
							CHANNELS 3 Zrotation Yrotation Xrotation
							JOINT rwrist
							{
								OFFSET -3.444170 -0.000000 -0.000000
								CHANNELS 3 Zrotation Yrotation Xrotation
								JOINT rhand
								{
									OFFSET 0.000000 0.000000 0.000000
									CHANNELS 3 Zrotation Yrotation Xrotation
									JOINT rfingers
									{
										OFFSET -0.622530 -0.000000 -0.000000
										CHANNELS 3 Zrotation Yrotation Xrotation
										End Site
										{
											OFFSET 0.000000 0.000000 0.000000
										}
									}
								}
								JOINT rthumb
								{
									OFFSET 0.000000 0.000000 0.000000
									CHANNELS 3 Zrotation Yrotation Xrotation
									End Site
									{
										OFFSET 0.000000 0.000000 0.000000
									}
								}
							}
						}
					}
				}
			}
		}
	}
}
MOTION
Frames: 6
Frame Time: 0.008333
1.016142 17.906957 2.999475 -172.802650 -13.975368 158.848327 7.512745 7.738573 2.867885 -6.716149 0.344824 1.255883 1.437582 6.547232 27.405666 2.252661 -1.556882 22.316564 2.273700 -9.414400 -27.100400 -10.211183 -7.769928 0.008316 35.422717 -4.486175 13.448467 -1.536856 -5.479985 24.993516 1.689937 -6.262421 5.543780 -0.001700 -0.263300 0.723500 2.747183 -2.398532 8.512616 1.338791 -3.543895 -0.343686 5.883133 -2.608427 8.811950 -15.541254 -7.477828 -6.223827 2.712334 -9.481452 9.504385 4.257300 -5.163700 3.494200 1.374249 -1.035266 7.311241 55.817119 -46.467621 -77.115408 31.033249 -45.961312 -12.644478 1.059708 -1.492987 73.463042 17.543779 5.044397 1.260400 -7.125000 0.000000 0.000000 -8.935900 34.501900 2.326300 -1.258832 -0.177875 6.646234 -49.315885 40.872457 -85.922174 -47.080019 55.580991 -26.978806 -0.755966 1.200569 161.159880 -7.829656 -10.502994 1.299700 7.125000 0.000000 0.000000 16.116500 -38.675500 2.590600 
1.002185 17.903673 2.977309 -172.725485 -13.997443 158.853916 7.511351 7.737506 2.863595 -6.612753 0.238390 1.284460 1.309080 6.342491 26.691061 2.200856 -1.382343 22.390186 2.273100 -9.413200 -27.096800 -10.217456 -7.772740 -0.002943 35.454088 -4.560296 13.506288 -1.534563 -5.476114 24.986776 1.685105 -6.243865 5.497671 -0.001000 -0.208400 0.572600 2.727342 -2.422326 8.468354 1.345571 -3.588036 -0.329352 5.887102 -2.610036 8.700374 -15.685765 -7.543191 -5.889540 2.638670 -9.604599 9.569243 4.281500 -5.237200 3.450000 1.367558 -1.251266 7.321628 53.573123 -46.215231 -73.684707 32.574813 -46.744640 -13.559890 1.157704 -1.614998 74.657517 17.541764 4.614078 1.099400 -7.125000 0.000000 0.000000 -8.976100 33.947100 2.459200 -1.313206 0.079228 6.416458 -47.199429 39.563017 -81.741768 -48.337712 55.948811 -27.924314 -0.866311 1.314622 162.286681 -8.323536 -11.935692 1.591300 7.125000 0.000000 0.000000 15.939100 -39.971700 2.035300 
0.987819 17.899568 2.955862 -172.612557 -14.018231 158.844484 7.512410 7.736304 2.863689 -6.485235 0.051153 1.338968 1.187481 6.148055 26.009950 2.148522 -1.202773 22.467536 2.247700 -9.364000 -26.940800 -10.227777 -7.772679 -0.016782 35.536094 -4.638786 13.586388 -1.528075 -5.467377 24.962641 1.692709 -6.263408 5.422092 -0.000500 -0.139200 0.382400 2.757211 -2.450757 8.449428 1.352844 -3.631984 -0.315877 5.864160 -2.605988 8.550351 -15.828844 -7.626826 -5.525625 2.564902 -9.752596 9.614713 4.307900 -5.320400 3.399300 1.366102 -1.493749 7.301228 51.269546 -45.729589 -70.117834 34.235004 -47.599285 -14.614468 1.261587 -1.770784 75.890004 17.736525 4.002553 0.898500 -7.125000 0.000000 0.000000 -8.861100 33.205200 2.588000 -1.371663 0.374236 6.175792 -44.969577 38.015180 -77.238029 -50.070878 56.464222 -29.279658 -0.984221 1.442028 163.438765 -8.756124 -13.711528 1.951500 7.125000 0.000000 0.000000 15.906100 -41.590800 1.376400 
0.972118 17.896079 2.932875 -172.531513 -14.036850 158.846759 7.512892 7.733759 2.866326 -6.384024 -0.149758 1.433886 1.068495 5.955064 25.361130 2.124555 -1.125247 22.526920 2.220000 -9.310100 -26.770300 -10.238110 -7.773109 -0.029527 35.577046 -4.703327 13.677512 -1.521084 -5.454667 24.929425 1.696123 -6.269209 5.370736 -0.000100 -0.074600 0.205000 2.747272 -2.478027 8.419201 1.362161 -3.675810 -0.306481 5.877802 -2.606400 8.380429 -16.024117 -7.698729 -5.145354 2.494600 -9.887650 9.660761 4.346500 -5.399300 3.349400 1.365835 -1.741188 7.271507 49.200223 -45.082144 -66.958761 35.550431 -48.272968 -15.538534 1.365980 -1.940523 77.329816 18.433869 3.307065 0.689800 -7.125000 0.000000 0.000000 -8.343200 32.371000 2.603600 -1.430775 0.666425 5.927828 -42.789179 36.300746 -72.749272 -52.217901 57.077374 -31.013970 -1.095462 1.576398 164.494570 -9.124325 -15.695696 2.358500 7.125000 0.000000 0.000000 16.020100 -43.407800 0.647200 
0.955185 17.894129 2.908862 -172.449452 -14.061909 158.857601 7.515872 7.728761 2.870465 -6.300513 -0.439712 1.564611 0.954150 5.770626 24.740495 2.094640 -1.033459 22.568447 2.183600 -9.238600 -26.544500 -10.249225 -7.770363 -0.042540 35.644769 -4.714837 13.797762 -1.509293 -5.435469 24.873072 1.721034 -6.340719 5.261890 0.000000 -0.026100 0.071800 2.755284 -2.513462 8.375904 1.369724 -3.728940 -0.297321 5.846480 -2.604977 8.217032 -16.191821 -7.769380 -4.750110 2.430886 -10.025275 9.675441 4.386000 -5.472100 3.269800 1.365030 -1.965920 7.241363 47.460194 -44.329811 -64.315687 36.486463 -48.763152 -16.287390 1.463864 -2.108899 78.951962 19.665520 2.645036 0.485500 -7.125000 0.000000 0.000000 -7.405900 31.557300 2.452800 -1.486195 0.942158 5.701441 -40.774111 34.472372 -68.630168 -54.499590 57.664593 -32.944715 -1.186814 1.715256 165.334084 -9.400615 -17.718565 2.768500 7.125000 0.000000 0.000000 16.290300 -45.254300 -0.105100 
0.935790 17.893000 2.884233 -172.385860 -14.089763 158.885782 7.518948 7.724160 2.877612 -6.245162 -0.760795 1.711746 0.843176 5.590198 24.136576 2.058642 -0.930717 22.578261 2.164400 -9.200400 -26.424100 -10.257219 -7.768376 -0.054535 35.660110 -4.769549 13.891915 -1.496278 -5.411512 24.803423 1.731440 -6.366886 5.211949 -0.000100 0.053000 -0.145600 2.762680 -2.550450 8.322497 1.375425 -3.780268 -0.294478 5.808660 -2.600716 8.037645 -16.376860 -7.845528 -4.356260 2.363910 -10.170826 9.690769 4.430100 -5.551500 3.199400 1.362655 -2.180398 7.200202 45.841968 -43.485606 -61.951482 37.206990 -49.139601 -16.946801 1.558184 -2.268188 80.622008 21.376126 2.211524 0.327700 -7.125000 0.000000 0.000000 -6.110000 30.958800 2.107000 -1.543281 1.201698 5.503188 -38.964003 32.600777 -64.981925 -56.768971 58.166685 -34.950643 -1.251290 1.855955 165.931305 -9.562222 -19.621639 3.133600 7.125000 0.000000 0.000000 16.705000 -46.971800 -0.835400 
